<svg xmlns="http://www.w3.org/2000/svg" width="28" height="28" viewBox="0 0 28 28"><defs><style>.a{fill:rgba(0,0,0,0);}.b{fill:#fff;}</style></defs><rect class="a" width="28" height="28"/><path class="b" d="M16.539,17.972h0l-5.195-5.193A7.027,7.027,0,0,1,7.1,14.2a7.117,7.117,0,1,1,5.99-3.3c-.086.136-.184.278-.31.446l5.193,5.2L16.54,17.971ZM7.1,1.015a6.033,6.033,0,0,0-4.831,2.4,6.057,6.057,0,0,0,.514,7.962l0,0A.084.084,0,0,0,2.8,11.4a.027.027,0,0,0,.008.008l.005,0a6.079,6.079,0,0,0,9.416-7.577,6.129,6.129,0,0,0-2.477-2.2A6.014,6.014,0,0,0,7.1,1.015Z" transform="translate(5 5)"/></svg>